<?xml version="1.0" encoding="utf-8"?>
<!-- Generator: Adobe Illustrator 17.1.0, SVG Export Plug-In . SVG Version: 6.00 Build 0)  -->
<!DOCTYPE svg PUBLIC "-//W3C//DTD SVG 1.1//EN" "http://www.w3.org/Graphics/SVG/1.1/DTD/svg11.dtd">
<svg version="1.1" id="Layer_1" xmlns="http://www.w3.org/2000/svg" xmlns:xlink="http://www.w3.org/1999/xlink" x="0px" y="0px"
	 viewBox="0 0 478.6 266.5" enable-background="new 0 0 478.6 266.5" xml:space="preserve">
<line fill="none" x1="-120.7" y1="-48.7" x2="-120.7" y2="-47.7"/>
<g>
	<g>
		<g>
			<path fill-rule="evenodd" clip-rule="evenodd" fill="#5A180A" d="M447.1,166.8l-0.3-0.3l-0.8-0.7l0.4-0.4l0.9-0.9
				c0.5-0.6,1-1.1,1.4-1.7c0.5-0.7,0.8-1.3,1.1-2.1c0.2-0.4,0.3-0.7,0.3-1.1c0.2-0.8,0.2-1.6-0.1-2.5l-0.2-0.5
				c-0.1-0.1-0.2-0.3-0.3-0.4c-0.1-0.1-0.2-0.2-0.3-0.2c-0.2-0.1-0.4-0.2-0.7-0.2l-0.7-0.1l-0.6-0.1c-0.1,0-0.3-0.1-0.4-0.1
				c-0.7-0.2-1.2-0.6-1.7-1.1c-1.1-1-1.7-2.3-1.9-3.8c-0.3-2.3,0.4-4.5,2.1-6.1c0.7-0.7,1.6-1.1,2.6-1.2c0.7-0.1,1.4-0.1,2.1,0.1
				c1.2,0.3,2.2,0.9,2.9,1.9c0.4,0.5,0.7,1,1,1.6c0.3,0.7,0.5,1.3,0.6,2c0.8,3.7,0.5,7.3-0.9,10.9c-0.4,1-0.9,1.8-1.6,2.6
				c-0.8,1-1.7,1.9-2.8,2.8L447.1,166.8L447.1,166.8L447.1,166.8z M413.3,163.3h-17.9v3.9h3.1v31.9l-0.6,0.1
				c-0.8,0.1-1.6,0.2-2.4,0.2h-0.1v3.7l19.1,0l0-22.8l-0.1-3.1c-0.1-1.1,0-2.1,0-3.2c0-0.7,0.1-1.3,0.3-1.9c0.1-0.3,0.2-0.6,0.3-0.9
				c0.2-0.4,0.4-0.8,0.7-1.1c0.6-0.8,1.4-1.3,2.3-1.7c1.1-0.4,2.2-0.5,3.4-0.3c0.2,0,0.3,0.1,0.4,0.1c0.3,0.1,0.6,0.2,0.8,0.4
				c0.5,0.3,1,0.7,1.4,1.1c0.3,0.3,0.5,0.6,0.7,1c0.3,0.6,0.4,1.1,0.5,1.7c0.1,0.7,0.2,1.3,0.2,1.9l0,3.1l-0.1,3V203l19.1,0l0-3.9
				l-3.1,0l0.1-11.2c0.1-3,0-5.7-0.2-8.6c-0.1-1.2-0.2-2.4-0.5-3.6c-0.2-1.1-0.5-2.1-0.9-3.1c-1.1-3-3.2-5.3-6.1-6.7
				c-1.2-0.6-2.3-1.1-3.6-1.5c-2.2-0.7-4.3-1.1-6.7-1.3c-1.7-0.2-3.3-0.1-5,0.2c-0.3,0.1-0.5,0.1-0.8,0.2c-0.3,0.1-0.5,0.2-0.8,0.4
				l-3.4,2.2l-0.1-1.1c0-0.1,0-0.2,0-0.3L413.3,163.3L413.3,163.3z M477.8,166.7l-8-5.2c-0.6,0.2-1,0.4-1.6,0.7
				c-2.6,1.3-5,2.7-7.4,4.3c-2,1.3-3.6,2.7-5.2,4.5c-0.9,1.1-1.6,2.2-2.1,3.5c-0.7,2-0.8,4-0.1,6c0.3,0.8,0.6,1.5,1,2.2
				c0.7,1.1,1.4,2.1,2.3,3l2.8,2.9c0.5,0.5,0.9,1.1,1.3,1.7c0.9,1.4,1.5,2.9,1.6,4.5c0.2,2-0.4,3.8-1.7,5.3c-0.4,0.5-0.9,1-1.4,1.5
				l-0.7,0.6c1.2,0.7,2.2,1.4,3.3,2.1c0.2,0.1,0.4,0.3,0.6,0.4l0.3,0.2c0.6-0.2,1.1-0.4,1.7-0.7c2.7-1.2,5.1-2.5,7.6-4.2
				c1.5-1,2.8-2.2,4-3.6c0.5-0.6,0.9-1.2,1.3-1.9c1-1.9,1.4-3.9,1.1-6c-0.2-1.5-0.7-2.9-1.4-4.3c-0.9-1.7-1.9-3.1-3.1-4.5
				c-0.4-0.4-0.8-0.8-1.2-1.2l-1.5-1.3c-0.5-0.5-1-0.9-1.5-1.4c-0.5-0.5-0.9-1-1.2-1.6c-0.6-1-0.9-2-0.9-3.1c0-0.5,0.1-0.9,0.3-1.4
				c0.2-0.4,0.4-0.7,0.7-1c0.2-0.2,0.3-0.3,0.5-0.5l0.3-0.3l3.8,1.4L477.8,166.7L477.8,166.7z M186.5,142.3c2.9-0.4,5.8,0.5,8,2.5
				c1.8,1.7,2.4,4.4,1.5,6.7c-0.2,0.6-0.6,1.1-1,1.6c-0.6,0.7-1.3,1.2-2.1,1.6c-0.9,0.5-1.9,0.8-2.9,0.9c-1.2,0.2-2.3,0.2-3.5,0.1
				c-1-0.1-1.9-0.3-2.8-0.7c-1.5-0.6-2.7-1.6-3.5-3c-1.5-2.5-1-5.8,1.2-7.7c0.7-0.6,1.3-1,2.1-1.3
				C184.5,142.6,185.4,142.4,186.5,142.3L186.5,142.3L186.5,142.3z M368.7,178.4c-2.2,0.9-3.9,2.5-5,4.6c-0.5,1-0.9,2-1.2,3.1
				c-0.5,2-0.7,3.9-0.7,6c0,1.2,0.2,2.2,0.5,3.3c0.2,0.6,0.5,1.1,0.8,1.6c0.3,0.4,0.7,0.8,1.1,1.1c0.6,0.4,1.3,0.6,2.1,0.6
				c0.2,0,0.5-0.1,0.7-0.2c0.2-0.1,0.4-0.2,0.6-0.3c0.4-0.3,0.7-0.6,1-0.9c0.6-0.7,1.1-1.4,1.6-2.3l0.1-0.2l-0.1-16.5l-0.7,0
				c-0.2,0-0.3,0-0.5,0l-0.2,0L368.7,178.4L368.7,178.4z M360,169.9h-7v-5.7l1.9-0.4c2.6-0.4,4.9-0.7,7.5-0.9
				c3.4-0.3,6.5-0.1,9.9,0.4c1.9,0.3,3.7,0.9,5.5,1.6c1.6,0.7,3,1.6,4.3,2.8c2.4,2.1,3.7,5,3.9,8.2l0.1,23.2l3,0l0,3.8h-17.9
				l0.1-2.2l0-0.3l0-1.2l-1,0.6c-0.3,0.2-0.6,0.4-0.9,0.6l-1.5,1.1l-1,0.7c-0.3,0.2-0.6,0.3-0.9,0.5c-0.1,0.1-0.2,0.1-0.4,0.1
				c-0.5,0.1-0.9,0.2-1.4,0.2c-1.7,0.1-3.2,0-4.8-0.2c-2.5-0.4-4.8-1-7.2-2.1c-2.9-1.3-4.9-3.7-5.8-6.7c-0.5-1.5-0.7-3-0.6-4.5
				c0.1-2.1,0.7-4.1,1.9-5.9c1.3-1.8,2.8-3.3,4.6-4.4c3.1-2,6.3-3.3,9.9-4c2.4-0.5,4.6-0.8,7-0.9l0.6,0l0.1-0.6c0.1-1,0-1.9-0.2-2.8
				c-0.2-0.8-0.5-1.5-1-2.2c-0.8-1-1.8-1.6-3-1.9c-0.4-0.1-0.8-0.2-1.3-0.2c-1-0.1-1.9-0.1-3,0.1l-0.4,0.1L360,169.9L360,169.9z
				 M323.1,166.4c-0.5,0.1-1,0.4-1.4,0.8c-0.4,0.4-0.7,0.9-1,1.4c-0.3,0.6-0.5,1.2-0.7,1.9c-0.2,0.8-0.4,1.4-0.5,2.2
				c-0.7,4.8-0.8,9.2-0.2,14l0.1,0.7l0.7-0.1l0.3-0.1l0.7-0.1c0.3,0,0.5-0.1,0.8-0.2c0.9-0.3,1.6-0.7,2.3-1.3c0.7-0.6,1.2-1.3,1.7-2
				c0.5-0.8,0.9-1.6,1.2-2.5c1-2.8,1.3-5.6,1.1-8.6c-0.1-0.9-0.3-1.7-0.5-2.6c-0.2-0.8-0.5-1.4-1-2.1c-0.4-0.6-0.9-1-1.6-1.4
				C324.6,166.3,323.9,166.2,323.1,166.4L323.1,166.4L323.1,166.4z M336.7,199.3v3.4l-1.4,0.2c-4.6,0.6-8.9,0.7-13.5,0.2
				c-2.7-0.3-5.2-0.9-7.8-1.9c-1.5-0.6-2.8-1.3-4.1-2.2c-2.7-1.9-4.6-4.4-5.8-7.4c-1.6-4.2-2.1-8.4-1.6-12.8
				c0.7-5.8,4.2-10.6,9.4-13.3c3.5-1.7,6.9-2.6,10.8-2.9c3.9-0.3,7.4,0.2,11.1,1.4c2.2,0.8,4.2,1.8,6.1,3.3c0.8,0.7,1.5,1.4,2.2,2.2
				c2,2.5,2.6,5.7,1.8,8.8c-0.3,1.3-0.8,2.5-1.5,3.7c-0.3,0.6-0.7,1.1-1.1,1.6c-1,1.1-2,2-3.2,2.8c-2.1,1.4-4.2,2.4-6.6,3.2
				c-3.4,1.1-6.7,1.7-10.3,1.9l-0.9,0l0.2,0.8c0.4,1.3,0.9,2.4,1.7,3.5c0.8,1,1.6,1.7,2.7,2.3c1.1,0.6,2.2,1,3.5,1.3
				c1.4,0.3,2.7,0.4,4.2,0.3C334.1,199.5,335.3,199.4,336.7,199.3L336.7,199.3L336.7,199.3z M262.6,203.1v-3.5l2,0h1.7
				c0.6,0,1.1-0.1,1.6-0.1c0.8-0.1,1.6-0.4,2.4-0.8c1-0.6,1.8-1.4,2.5-2.4c0.7-1.2,1.3-2.3,1.7-3.7c0.5-1.6,0.9-3.1,1.2-4.7
				c0.6-4,1-7.6,1.1-11.6l-0.3-29.6l-3.1,0l0.1-3.9l23.2,0.2v3.7h-3.1l0.2,17.2c0.1,5.1-0.1,9.8-0.5,15c-0.2,2.3-0.5,4.3-1,6.5
				c-0.4,2-1,3.8-1.8,5.7c-0.7,1.7-1.6,3.2-2.8,4.7c-2.5,3-5.6,5.1-9.3,6.3c-4.6,1.3-9.1,1.7-13.9,1.2L262.6,203.1L262.6,203.1z
				 M227,178.4c-2.2,0.9-3.9,2.5-5,4.6c-0.5,1-0.9,2-1.2,3.1c-0.5,2-0.7,3.9-0.7,6c0,1.2,0.2,2.2,0.5,3.3c0.2,0.6,0.5,1.1,0.8,1.6
				c0.3,0.4,0.7,0.8,1.1,1.1c0.6,0.4,1.3,0.6,2.1,0.6c0.2,0,0.5-0.1,0.7-0.2c0.2-0.1,0.4-0.2,0.6-0.3c0.4-0.3,0.7-0.6,1-0.9
				c0.6-0.7,1.1-1.4,1.6-2.3l0.1-0.2l-0.1-16.5l-0.7,0c-0.2,0-0.3,0-0.5,0l-0.2,0L227,178.4L227,178.4z M218.3,169.9h-7v-5.7
				l1.9-0.4c2.5-0.4,4.9-0.7,7.5-0.9c3.4-0.3,6.5-0.1,9.9,0.4c2,0.3,3.7,0.9,5.5,1.6c1.6,0.7,3,1.6,4.3,2.8c2.4,2.1,3.7,5,3.9,8.2
				l0.1,23.2l3,0l0,3.8h-17.9l0.1-2.2l0-0.2l0-1.2l-1,0.6c-0.3,0.2-0.6,0.4-0.9,0.6l-1.5,1.1l-1,0.7c-0.3,0.2-0.6,0.3-0.9,0.5
				c-0.1,0.1-0.2,0.1-0.4,0.1c-0.5,0.1-0.9,0.2-1.4,0.2c-1.7,0.1-3.2,0-4.8-0.2c-2.5-0.4-4.8-1-7.2-2.1c-2.9-1.3-4.9-3.7-5.8-6.7
				c-0.5-1.5-0.7-3-0.6-4.5c0.1-2.1,0.7-4.1,1.9-5.9c1.3-1.8,2.8-3.3,4.6-4.4c3.1-2,6.3-3.3,9.9-4c2.4-0.5,4.6-0.8,7-0.9l0.6,0
				l0.1-0.6c0.1-1,0-1.9-0.2-2.8c-0.2-0.8-0.5-1.5-1-2.2c-0.8-1-1.8-1.6-3-1.9c-0.4-0.1-0.8-0.2-1.3-0.2c-1-0.1-1.9-0.1-3,0.1
				l-0.4,0.1L218.3,169.9L218.3,169.9z M171.7,163.1v9.1h-6.9l0-0.2l-0.4-2l-0.2-0.6l-0.2-0.8l-0.7,0.4c-0.8,0.4-1.5,0.9-2.3,1.4
				c-1.3,1-2.3,2.2-3,3.7c-0.4,0.8-0.6,1.5-0.8,2.3c-0.5,1.9-0.7,3.7-0.7,5.6l0.1,17.1l3.3,0.1l0,3.8h-19.1v-35.9h-3.1v-3.9
				l17.9,0.2l0,1.8l0,0.5l0,0.2l0.1,1l0.9-0.4l4-1.9c2.3-1,4.5-1.5,7-1.7c0.8-0.1,1.6-0.1,2.4,0L171.7,163.1L171.7,163.1z
				 M176.8,163.3h18.9v35.8l3,0.1l0,3.8h-19.1v-35.9h-3.1L176.8,163.3L176.8,163.3z M109.5,166.3c-0.4,0-0.7,0.1-1,0.2
				c-0.4,0.1-0.6,0.3-0.9,0.6c-0.3,0.3-0.6,0.5-0.8,0.9c-0.3,0.4-0.5,0.7-0.7,1.2c-0.2,0.5-0.4,0.9-0.6,1.5
				c-0.4,1.3-0.6,2.5-0.8,3.8c-0.5,4.7-0.6,9.1-0.3,13.8c0.1,2.3,0.4,4.5,0.9,6.7c0.1,0.6,0.3,1.1,0.5,1.7c0.2,0.5,0.4,0.9,0.6,1.4
				c0.2,0.4,0.5,0.8,0.8,1.1c0.3,0.3,0.6,0.6,1.1,0.7c1.2,0.5,2.6,0.2,3.5-0.7c0.3-0.3,0.6-0.7,0.8-1c0.3-0.4,0.5-0.9,0.7-1.4
				c0.2-0.6,0.4-1.1,0.5-1.6c0.3-1.4,0.5-2.7,0.7-4.2c0.4-5.1,0.5-9.8,0.1-14.9c-0.1-1.6-0.3-3.1-0.6-4.6c-0.1-0.6-0.3-1.1-0.5-1.7
				c-0.2-0.5-0.3-0.9-0.6-1.3c-0.2-0.4-0.4-0.7-0.7-1c-0.5-0.5-1.1-0.9-1.8-1C110.1,166.3,109.8,166.3,109.5,166.3L109.5,166.3
				L109.5,166.3z M108,162.5c2.9-0.2,5.6,0,8.4,0.7c6.9,1.8,12.2,6.9,14.2,13.8c1.3,4.3,1.3,8.7-0.1,13c-1.4,4.4-4.3,8-8.2,10.4
				c-2.3,1.4-4.7,2.3-7.3,2.8c-3.3,0.6-6.3,0.7-9.6,0.3c-3.3-0.3-6.2-1.3-9-2.9c-1.6-1-3-2.1-4.2-3.6c-1-1.2-1.7-2.5-2.2-3.9
				c-2-5.2-2.5-10.5-1.3-15.9c0.4-1.7,0.9-3.3,1.7-4.8c1.2-2.3,2.9-4.2,5.1-5.7c2.5-1.6,5-2.7,7.9-3.3
				C104.8,162.9,106.3,162.6,108,162.5L108,162.5L108,162.5z M58.5,143l18.8,0.1v56.1l3.1,0l0.1,3.8H61.5v-56.3h-3.1L58.5,143
				L58.5,143z M50.6,199.9L50.6,199.9L50.6,199.9c-0.4,0.2-0.6,0.4-0.9,0.5c-3.4,1.3-6.7,2.2-10.3,2.6c-6.9,0.9-13.3,0.6-20.1-0.9
				c-2.3-0.6-4.3-1.3-6.4-2.5c-2.3-1.2-4.2-2.8-5.8-4.8c-1-1.2-1.8-2.5-2.6-3.9c-2.4-4.7-3.8-9.5-4.2-14.8c-0.5-5.5,0-10.6,1.6-15.9
				c1-3.2,2.4-6,4.5-8.7c1.8-2.2,3.8-3.8,6.3-5.1c2.8-1.5,5.6-2.4,8.7-3c1.7-0.3,3.3-0.5,5.1-0.7c5.7-0.4,10.9,0,16.4,1.2v6.5h-6.7
				l-0.1-0.5c-0.3-1-0.5-1.9-0.7-2.9l-0.1-0.5l-0.5-0.1c-1.4-0.2-2.8-0.1-4.2,0.1c-1.3,0.2-2.4,0.6-3.5,1.3
				c-1.1,0.7-1.9,1.5-2.7,2.5c-0.8,1.1-1.5,2.1-2,3.4c-0.6,1.4-1.1,2.6-1.5,4.1c-0.8,3.2-1.3,6.2-1.5,9.5c-0.4,6.5-0.1,12.4,1,18.8
				c0.3,1.7,0.6,3.3,1.1,5c0.3,1.1,0.7,2.1,1.2,3.1c0.5,1,1.1,1.8,1.8,2.6c1.1,1.2,2.5,2.1,4.1,2.5c0.4,0.1,0.8,0.2,1.2,0.2
				c0.6,0,1.1,0.1,1.7,0l1.9,0l0-15.2l-0.2-4.9c-0.1-0.6-0.1-1.1-0.2-1.7c-0.1-0.4-0.2-0.8-0.4-1.2c-0.2-0.3-0.4-0.6-0.7-0.9
				c-0.4-0.4-0.8-0.6-1.3-0.8c-0.4-0.1-0.7-0.2-1.1-0.3c-0.4-0.1-0.8-0.1-1.3-0.1v-3.9l5.3,0c1.1,0,2.2,0.1,3.3,0.2
				c3.7,0.4,6.9,1.9,9.6,4.4c2.3,2.1,3.6,4.7,4,7.7c0.3,2.9,0.5,5.5,0.4,8.5L50.6,199.9z"/>
		</g>
		<g>
			<path fill-rule="evenodd" clip-rule="evenodd" fill="#5A180A" d="M143.9,227.3l-2.3,6.3l0,0c-0.8-0.8-1.6-1.6-2.5-2.3
				c-2.4-2-5.1-3.2-8.1-3.7c-1-0.2-1.9-0.2-2.9-0.1c-0.9,0.1-1.7,0.3-2.5,0.6c-1.6,0.7-2.7,1.9-3.3,3.5c-0.4,1.2-0.5,2.4-0.1,3.7
				c0.3,0.8,0.6,1.6,1.2,2.3c0.9,1.2,2,2.2,3.3,2.9c2.8,1.7,5.8,2.6,9.1,2.6c0.8,0,1.6,0,2.5,0l-2.1,5.6l-0.3,0
				c-1.2,0.1-2.3,0-3.5-0.1c-4.8-0.6-9-2.1-13-4.7c-1.7-1-3.1-2.2-4.5-3.6c-1.2-1.2-2.1-2.5-2.8-4c-1.3-2.5-1.5-5.3-0.6-8
				c0.9-2.7,2.6-4.9,5.1-6.2c1.8-1,3.6-1.5,5.6-1.8c2.9-0.4,5.6-0.3,8.4,0.5c1.5,0.4,2.9,0.8,4.4,1.4
				C138.2,223.3,141.1,225,143.9,227.3L143.9,227.3L143.9,227.3z M170.6,239c-0.8-0.2-1.5-0.2-2.3-0.2c-1.1,0-2.1,0.3-3,0.9
				c-0.9,0.6-1.6,1.3-2.2,2.2c-0.7,1.4-1.1,2.8-1,4.3c0.1,2.1,1.3,4,3.2,5c1.4,0.7,2.9,1.1,4.5,1c0.7,0,1.4-0.1,2.1-0.4
				c1-0.4,1.8-1,2.5-1.8c0.7-0.9,1.1-1.9,1.4-3.1c0.2-0.8,0.2-1.5,0.2-2.2c-0.1-1.8-1-3.4-2.4-4.5
				C172.7,239.6,171.7,239.2,170.6,239L170.6,239L170.6,239z M171.7,232.6c2.1,0.5,4,1.1,5.9,2c1.7,0.8,3.1,1.7,4.5,2.9
				c1.2,1,2.2,2.2,3.1,3.6c1.5,2.6,2,5.6,1.3,8.5c-0.7,3-2.4,5.4-4.9,7.1c-2.1,1.4-4.3,2.1-6.8,2.4c-3,0.4-5.8,0.2-8.7-0.5
				c-2.1-0.5-3.9-1.1-5.8-2c-1.7-0.8-3.1-1.7-4.5-2.9c-1.2-1.1-2.2-2.2-3.1-3.6c-1.6-2.6-2-5.6-1.4-8.5c0.7-3,2.3-5.4,4.9-7.1
				c2.1-1.3,4.3-2.1,6.7-2.4C166.1,231.7,168.8,231.9,171.7,232.6L171.7,232.6L171.7,232.6z M211.7,244.2l-0.5,5.3l11.8,1.2
				l-0.5,4.8l-11.8-1.2l-1.1,10.6l-11.3-1.2l2.6-25.6l23.6,2.4l-0.5,4.9L211.7,244.2L211.7,244.2z M246.9,245.7l0,5.3l11.9-0.1
				l0,4.8l-11.9,0.1l0.1,10.7l-11.4,0.1l-0.1-25.7l23.7-0.1l0,4.9L246.9,245.7L246.9,245.7z M282.1,243.2l0.6,5.2l12.4-1.4l0.6,4.8
				l-12.4,1.4l0.7,5.7l13.5-1.5l0.6,5.1l-24.8,2.8l-2.9-25.6l24.4-2.8l0.5,4.7L282.1,243.2L282.1,243.2z M318.7,236.7l1.2,5.1
				l12.2-2.8l1.1,4.7l-12.2,2.8l1.3,5.5l13.2-3l1.2,5l-24.3,5.6l-5.8-25.1l23.9-5.5l1.1,4.7L318.7,236.7L318.7,236.7z M364.4,226.7
				l-0.4-0.2c-1.3-0.5-2.6-0.8-4.1-0.8c-1.3-0.1-2.5,0.1-3.7,0.5c-0.3,0.1-0.6,0.2-0.9,0.4c-0.3,0.1-0.5,0.3-0.7,0.5
				c-0.2,0.2-0.4,0.4-0.5,0.7c-0.1,0.3-0.2,0.5-0.3,0.8c0,0.3,0,0.6,0.1,0.9c0.1,0.1,0.1,0.3,0.2,0.4c0.2,0.3,0.3,0.5,0.6,0.7
				c0.1,0.1,0.3,0.2,0.4,0.2c0.2,0.1,0.3,0.1,0.5,0.2c0.2,0.1,0.4,0.1,0.6,0.1c0.5,0.1,0.9,0.1,1.4,0.2l2,0.1c1.3,0,2.5,0.1,3.8,0.3
				c0.9,0.1,1.7,0.3,2.5,0.6c1.3,0.5,2.3,1.3,3.1,2.5c0.2,0.2,0.3,0.5,0.4,0.8c0.2,0.6,0.3,1.2,0.2,1.8c-0.1,1-0.3,1.9-0.8,2.8
				c-0.3,0.7-0.8,1.4-1.3,2c-0.7,0.8-1.4,1.5-2.3,2c-1.1,0.7-2.1,1.3-3.3,1.8c-2.6,1.1-5.1,1.8-7.9,2.3c-1.5,0.2-2.9,0.3-4.4,0.2
				l-1.9-5.3l0.2,0c2.4,0.3,4.5,0.1,6.8-0.5c0.7-0.2,1.3-0.4,1.9-0.7c0.3-0.2,0.6-0.4,0.9-0.6c0.3-0.2,0.5-0.4,0.7-0.7
				c0.1-0.1,0.2-0.3,0.2-0.4c0.1-0.3,0.2-0.6,0.2-0.9c0-0.2,0-0.3-0.1-0.5c-0.1-0.3-0.2-0.5-0.4-0.7c-0.2-0.2-0.4-0.4-0.6-0.5
				c-0.3-0.2-0.5-0.3-0.8-0.3c-0.4-0.1-0.7-0.2-1-0.2l-5.1-0.5c-0.9-0.1-1.8-0.3-2.7-0.6c-0.4-0.1-0.7-0.2-1-0.4
				c-0.6-0.3-1-0.6-1.5-1c-0.6-0.6-1-1.3-1.3-2.1c-0.4-1.2-0.5-2.5-0.1-3.7c0.3-0.9,0.7-1.7,1.2-2.4c1-1.3,2.2-2.4,3.7-3.2
				c4.2-2.5,8.9-3.3,13.7-2.3L364.4,226.7z"/>
		</g>
		<path fill-rule="evenodd" clip-rule="evenodd" fill="#E57925" d="M299.3,52.9c0.2,0,0.4,0.1,0.4,0.3c9.2,22.2,3.3,47.9-14.8,64.1
			c-14.3,12.4-32.2,18.4-51.1,17c-4.4-0.4-8.4-1.3-12.5-2.9c-11.8-4.3-21.5-10.8-29.9-20.1c-1.6-1.8-2.8-3.6-4-5.6l-0.2-0.3
			l-0.2-0.3c-0.4-0.7-0.5-1.4-0.3-2.1c0.1-0.2,0.2-0.5,0.3-0.7c0.2-0.2,0.5-0.4,0.9-0.4c0.1,0,0.3,0,0.4,0c0.4,0.1,0.8,0.2,1.2,0.4
			c0.9,0.5,1.7,1.1,2.5,1.8c16.7,14.8,40.5,18.4,61.1,9.3c3.9-1.8,7.2-4.2,10-7.4c0.9-1.1,1.6-2.1,2.3-3.3c0.7-1.4,0.8-2.9,0.3-4.4
			c-0.5-1.5-1.5-2.6-2.9-3.3c-1.3-0.6-2.5-0.9-4-0.9l-21.8,1.9c-2.5-0.1-4.8-0.8-7-2.1c-0.5-0.2-0.8-0.6-1.1-1
			c-0.2-0.3-0.3-0.7-0.3-1.1c0-0.4,0.1-0.8,0.3-1.2c0.3-0.6,0.7-1.1,1.1-1.5c0.8-0.8,1.7-1.4,2.7-1.9c1.8-0.9,3.4-1.5,5.3-2
			c1.9-0.6,3.6-1,5.5-1.4l17.4-3.2c12.2-1.9,22.6-7.8,30.5-17.3c2.8-3.2,5.1-6.4,7.3-10C298.9,53,299.1,52.9,299.3,52.9z"/>
		<g>
			<path fill-rule="evenodd" clip-rule="evenodd" fill="#5A180A" d="M171.3,72.8c7.6,2.7,15,3.7,23,3c0.1,0,0.2,0,0.3,0.1
				c0.1,0.1,0.2,0.1,0.2,0.2c4.2,8.6,9.7,15.7,17.1,21.8c5.6,4.8,11.9,7.8,19.2,9.2c10.4,2,20.9-1.1,28.5-8.5l1.5-1.5
				c0.4-0.4,0.9-0.4,1.4-0.2c0.7,0.4,1.2,1.2,1.1,2.1c-0.1,1.3-0.5,2.4-1.2,3.4c-2.1,2.9-4.6,5.1-7.7,6.9
				c-15.4,8.7-33.7,9.1-49.4,1.1c-8.7-4.7-15.8-10.7-21.9-18.5c-5-6-9-11.8-12.6-18.6c-0.1-0.1,0-0.3,0-0.4
				C171,72.8,171.1,72.8,171.3,72.8L171.3,72.8L171.3,72.8z M215.1,32.4l-8.2,2.8c-7.2,2.7-13.4,5.9-19.8,10.2
				c-1.5,1.1-2.8,2.1-4.2,3.2c-2.9,2.1-4.9,4.9-6.1,8.3c-0.3,0.8-0.4,1.6-0.3,2.4c0.1,1.3,0.6,2.4,1.5,3.3c0.8,0.8,1.7,1.5,2.8,2
				c2.7,1.2,5.4,1.9,8.4,2.1c2.9,0.2,5.5,0.3,8.4,0.1c20.1-0.9,38.2-6.2,55.7-16.1c3.3-1.9,6.1-3.9,9-6.3c0.9-0.8,1.7-1.6,2.5-2.6
				l1.5-1.9c0.7-0.9,1.2-1.9,1.6-3c0.3-0.8,0.4-1.7,0.4-2.6c-0.1-1.2-0.6-2.3-1.4-3.1c-0.4-0.5-0.9-0.9-1.4-1.2
				c-1.5-1-2.9-1.6-4.6-2.1c-4.5-1.3-8.9-1.7-13.6-1.3c-9.2,0.3-17.6,1.6-26.4,4.1L215.1,32.4L215.1,32.4z M231.7,31.7
				c8.1-2.1,15.8-2.4,24-0.8c1.1,0.2,2.1,0.5,3.1,0.9c0.5,0.2,1,0.5,1.5,0.8c0.5,0.4,0.9,0.8,1.3,1.3c0.4,0.6,0.5,1.3,0.5,2.1
				c0,0.5-0.1,0.9-0.3,1.3c-0.6,1.4-1.4,2.7-2.5,3.8c-2.2,2.3-4.4,4.2-7.1,6c-5,3.3-9.8,5.8-15.4,8c-7,2.8-13.5,4.7-20.9,6.2
				l-11.1,2.2c-0.1,0-0.2,0-0.3-0.1c-0.1-0.1-0.2-0.2-0.2-0.3c0-0.1,0-0.2,0.1-0.3c0.1-0.1,0.1-0.2,0.3-0.2c7.7-2,14.6-4.2,22-6.9
				c5.9-2.2,11.1-4.7,16.6-8c2.8-1.5,5.2-3.4,7.3-5.8c0.5-0.5,0.9-1.1,1.3-1.7c0.2-0.4,0.4-0.8,0.5-1.3c0.1-0.5,0.2-1,0-1.6
				c-0.6-2-2-3.5-3.9-4.3c-1.3-0.5-2.6-0.8-3.9-1c-4.3-0.5-8.4-0.4-12.7,0.4c-0.1,0-0.2,0-0.3-0.1c-0.1-0.1-0.2-0.2-0.2-0.3
				c0-0.1,0-0.2,0.1-0.3C231.5,31.8,231.6,31.7,231.7,31.7L231.7,31.7L231.7,31.7z M289.6,29.7c-0.6,0.1-1.1,0.2-1.6,0.5
				c-0.9,0.5-1.6,1-2.3,1.8c-1.3,1.3-2.2,2.7-2.7,4.5c0.8,5.6,1,10.8,0.6,16.5c0,0.2,0.1,0.3,0.2,0.4c0.1,0.1,0.3,0,0.4-0.1
				c2.8-3.3,5-6.5,7.2-10.2c1.4-2.3,2.2-4.6,2.6-7.2c0.2-1,0.1-2-0.2-3c-0.2-0.5-0.4-0.9-0.7-1.3l-0.2-0.3l-0.2-0.3
				c-0.2-0.2-0.4-0.4-0.6-0.6c-0.3-0.2-0.6-0.4-1-0.5C290.5,29.7,290.1,29.7,289.6,29.7L289.6,29.7L289.6,29.7z M213.4,26.9
				l-7.1,2.6l-9.6,3.8c-6.9,2.9-12.8,6.3-18.8,10.8c-3,2.2-5.5,4.6-7.7,7.7c-1.1,1.5-1.9,3-2.6,4.7c-0.9,2.3-1.3,4.6-1.1,7.1
				c0.2,2.7,1.7,5.1,4.1,6.5c1.1,0.7,2.2,1.2,3.5,1.6c2.1,0.7,4,1.1,6.1,1.5c34.3,5,67.8-5.3,93.3-28.7c0.1-0.1,0.2-0.1,0.3,0
				c0.1,0.1,0.2,0.2,0.2,0.3c0.7,10.2-0.2,19.5-2.7,29.4c0,0.2,0,0.3,0.1,0.4c0.1,0.1,0.3,0.1,0.4,0.1c8.4-3.7,15.1-9.4,20.1-17.1
				c3.5-5.2,6.2-10.2,8.6-15.9c1.5-3.4,2.2-6.8,2.1-10.5c-0.2-3.4-1.8-6.4-4.4-8.7c-1.6-1.4-3.6-2.3-5.8-2.5c-3-0.3-5.8,0.3-8.5,1.8
				c-1.2,0.6-2.2,1.2-3.2,2l-3,2.1c-3-2.5-6.4-3.9-10.3-4.4c-18.4-2.1-35.7-0.3-53.3,5.4L213.4,26.9L213.4,26.9z M220.4,44.4
				l-3.6,1.1c-4.4,1.4-8.2,3-12.4,5c-0.1,0-0.2,0.1-0.3,0c-0.1,0-0.2-0.1-0.2-0.2c-0.1-0.1-0.1-0.2,0-0.3c0-0.1,0.1-0.2,0.2-0.2
				c5.7-3.2,11-5.7,17.1-8l0.3-0.1l3.7-1.3c5-1.9,10-2.7,15.3-2.7c0.5,0,1,0,1.5,0.1c0.5,0.1,1,0.2,1.4,0.4c0.3,0.1,0.6,0.4,0.8,0.7
				c0.1,0.3,0.2,0.7,0,1c-0.2,0.5-0.5,0.9-0.9,1.3c-0.5,0.5-0.9,1-1.4,1.4c-2.1,1.8-4.1,3.2-6.5,4.6c-13.4,7.6-27,12-42.4,13.5
				l-2.5,0.2c-2.1,0.2-4-0.1-5.9-0.9c-0.3-0.1-0.6-0.3-0.9-0.5c-0.3-0.2-0.5-0.4-0.7-0.6c-0.5-0.5-0.8-1.3-0.7-2
				c0.1-0.5,0.2-0.9,0.4-1.3c0.3-0.5,0.6-1,1-1.5c0.6-0.6,1.1-1.1,1.7-1.6c2.8-2.2,5.5-3.9,8.6-5.6c8.6-4.6,16.9-8,26.2-10.8
				l8.7-2.5c0.2,0,0.3,0,0.5,0.1c0.1,0.1,0.2,0.2,0.3,0.4c0,0.2,0,0.3,0,0.4c-0.1,0.1-0.2,0.2-0.3,0.3l-4.7,1.6l-3.5,1.3l-4,1.5
				l-5.3,2.1l-5.2,2.3c-2.8,1.2-5.4,2.4-8.1,3.8c-1.9,1-3.5,2.1-5.2,3.5c-0.9,0.7-1.6,1.6-2.2,2.6c-0.2,0.3-0.3,0.5-0.4,0.8
				c-0.1,0.3-0.2,0.6-0.1,0.9c0,0.3,0.1,0.5,0.3,0.7c0.2,0.2,0.5,0.4,0.8,0.5c0.4,0.2,0.8,0.2,1.3,0.3c0.6,0.1,1.2,0.1,1.8,0
				c8.4-0.6,15.9-2.1,23.9-4.7c5.4-1.5,10-3.9,14.5-7.3c0.3-0.2,0.6-0.5,0.9-0.8c0.2-0.2,0.3-0.3,0.4-0.5c0.1-0.2,0.2-0.4,0.2-0.6
				c0-0.2,0-0.3-0.1-0.5c-0.1-0.2-0.2-0.3-0.4-0.4c-0.2-0.1-0.4-0.2-0.6-0.2c-0.8-0.2-1.5-0.2-2.4-0.1c-0.6,0.1-1.1,0.1-1.7,0.3
				c-1.8,0.4-3.4,0.8-5.2,1.3l-1.2,0.3L220.4,44.4z"/>
		</g>
		<path fill-rule="evenodd" clip-rule="evenodd" fill="#A05535" d="M213.4,26.9c2.7,0.9,5.1,2.1,7.5,3.7c0.4,0.2,0.7,0.5,1,0.8
			c0.4,0.3,0.7,0.6,1,1c1.2,1.3,1.8,2.8,1.8,4.5c0.1,1.7-0.1,3.2-0.6,4.8c-0.3,0.7-0.5,1.3-0.9,2c-1.9,2.9-4.5,5-7.8,6.2
			c0,0-0.1,0-0.1,0c0,0-0.1,0-0.1-0.1c0,0,0-0.1,0-0.1c0,0,0-0.1,0.1-0.1c3.1-1.8,5.3-4.6,6.2-8.1c0.3-1.3,0.2-2.6-0.4-3.8
			c-0.2-0.5-0.5-0.9-0.8-1.4c-0.3-0.4-0.6-0.8-1-1.2c-1.2-1.2-2.6-2.1-4.2-2.7c-3-1-5.7-1.8-8.8-2.7l-12.1-3.5
			c-1.9-0.5-3.5-1.1-5.3-1.9c-1.2-0.6-2.3-1.2-3.3-2c-1.5-1.2-2.5-2.8-2.9-4.6c-0.5-2.1-0.3-4.1,0.7-6c0.9-1.8,2.1-3.2,3.6-4.5
			c2.6-2.2,5.4-3.7,8.6-4.9c3.9-1.5,7.7-2.2,11.8-2.4c5.3-0.3,10.3,0.5,15.2,2.4c1.2,0.5,2.3,1.1,3.4,1.9c0.9,0.6,1.6,1.3,2.3,2.2
			c0.2,0.3,0.4,0.6,0.6,0.9c0.2,0.4,0.3,0.9,0.3,1.3c0,0.3,0,0.7,0,1l0,0.6c0,0.6-0.1,1.1-0.4,1.6c-0.4,0.8-0.8,1.5-1.5,2.1
			c-0.5,0.5-1,0.9-1.6,1.3c-1.3,0.8-2.6,1.3-4,1.7c-3.4,1.3-6.8,1.5-10.3,0.8c-0.6-0.1-1-0.3-1.6-0.5c-0.8-0.3-1.5-0.8-2.1-1.4
			c-0.3-0.3-0.6-0.6-0.8-1c-0.1-0.2-0.2-0.3-0.1-0.5c0-0.2,0.1-0.4,0.3-0.5c0.2-0.1,0.4-0.2,0.6-0.1c0.2,0,0.4,0.1,0.5,0.3
			c0.4,0.5,0.9,0.9,1.5,1.2c0.6,0.3,1.2,0.4,1.9,0.5c0.7,0.1,1.4,0.1,2.2,0c2.4-0.1,4.6-1.2,6.2-3.1c0.3-0.4,0.6-0.8,0.9-1.3
			c0.6-1.4,0.6-2.9-0.1-4.2c-0.9-1.8-2.4-3.1-4.3-3.8c-0.6-0.2-1.2-0.4-1.9-0.6c-6.2-1.3-12.4-0.3-17.9,3c-2.1,1.2-3.6,3-4.6,5.2
			c-0.5,1.1-0.7,2.1-0.7,3.2c0,1.8,0.7,3.4,1.9,4.8c0.7,0.7,1.4,1.3,2.2,1.8c1.1,0.6,2.1,1.1,3.2,1.5c1.2,0.5,2.4,0.9,3.7,1.2
			L213.4,26.9z"/>
	</g>
</g>
</svg>
